<svg xmlns="http://www.w3.org/2000/svg" xmlns:xlink="http://www.w3.org/1999/xlink" version="1.1" width="1000" height="1000" viewBox="0 0 1000 1000" xml:space="preserve">
<desc>Created with Fabric.js 3.5.0</desc>
<defs>
</defs>
<rect x="0" y="0" width="100%" height="100%" fill="rgba(255,255,255,0)"/>
<g transform="matrix(1.6499 0 0 1.6499 499.9909 499.9909)" id="919575">
<g style="" vector-effect="non-scaling-stroke">
		<g transform="matrix(12.5 0 0 12.5 7600 2200)" id="Icons">
<rect style="stroke: none; stroke-width: 1; stroke-dasharray: none; stroke-linecap: butt; stroke-dashoffset: 0; stroke-linejoin: round; stroke-miterlimit: 2; is-custom-font: none; font-file-url: none; fill: none; fill-rule: evenodd; opacity: 1;" x="-640" y="-400" rx="0" ry="0" width="1280" height="800"/>
</g>
		<g transform="matrix(12.5 0 0 12.5 0.3937 -2.705)" id="github">
<path style="stroke: none; stroke-width: 1; stroke-dasharray: none; stroke-linecap: butt; stroke-dashoffset: 0; stroke-linejoin: round; stroke-miterlimit: 2; is-custom-font: none; font-file-url: none; fill: rgb(1,1,1); fill-rule: evenodd; opacity: 1;" transform=" translate(-32.0315, -31.7836)" d="M 32.029 8.345 c -13.27 0 -24.029 10.759 -24.029 24.033 c 0 10.617 6.885 19.624 16.435 22.803 c 1.202 0.22 1.64 -0.522 1.64 -1.16 c 0 -0.569 -0.02 -2.081 -0.032 -4.086 c -6.685 1.452 -8.095 -3.222 -8.095 -3.222 c -1.093 -2.775 -2.669 -3.514 -2.669 -3.514 c -2.182 -1.492 0.165 -1.462 0.165 -1.462 c 2.412 0.171 3.681 2.477 3.681 2.477 c 2.144 3.672 5.625 2.611 6.994 1.997 c 0.219 -1.553 0.838 -2.612 1.526 -3.213 c -5.336 -0.606 -10.947 -2.669 -10.947 -11.877 c 0 -2.623 0.937 -4.769 2.474 -6.449 c -0.247 -0.608 -1.072 -3.051 0.235 -6.36 c 0 0 2.018 -0.646 6.609 2.464 c 1.917 -0.533 3.973 -0.8 6.016 -0.809 c 2.041 0.009 4.097 0.276 6.017 0.809 c 4.588 -3.11 6.602 -2.464 6.602 -2.464 c 1.311 3.309 0.486 5.752 0.239 6.36 c 1.54 1.68 2.471 3.826 2.471 6.449 c 0 9.232 -5.62 11.263 -10.974 11.858 c 0.864 0.742 1.632 2.208 1.632 4.451 c 0 3.212 -0.029 5.804 -0.029 6.591 c 0 0.644 0.432 1.392 1.652 1.157 c 9.542 -3.185 16.421 -12.186 16.421 -22.8 c 0 -13.274 -10.76 -24.033 -24.034 -24.033" stroke-linecap="round"/>
</g>
</g>
</g>
<g transform="matrix(0.8688 0 0 0.8688 499.4972 416.3191)" id="361477">
<path style="stroke: none; stroke-width: 0; stroke-dasharray: none; stroke-linecap: butt; stroke-dashoffset: 0; stroke-linejoin: miter; stroke-miterlimit: 4; is-custom-font: none; font-file-url: none; fill: rgb(0,0,0); fill-rule: nonzero; opacity: 1;" vector-effect="non-scaling-stroke" transform=" translate(-256, -256)" d="M 465.4 247 c -2.2 -22 -12.4 -43 -28.9 -58.4 c -17.1 -15.9 -39.3 -24.7 -62.7 -24.7 c -41.5 0 -77.3 27.4 -88.5 67 c -7 -7 -18.5 -11.7 -29.3 -11.7 c -10.8 0 -22.3 4.7 -29.3 11.7 c -11.2 -39.6 -47 -67 -88.5 -67 c -23.3 0 -45.6 8.7 -62.7 24.6 C 59 204 48.8 225 46.6 247 H 32 v 18 h 14.6 c 2.2 22 12.4 43 28.9 58.4 c 17.1 15.9 39.3 24.7 62.7 24.7 c 50.8 0 92.1 -41.2 92.1 -92 c 0 -0.1 0 -0.1 0 -0.1 h 0 c 0 -9.9 11.5 -21.6 25.7 -21.6 s 25.7 11.7 25.7 21.6 h 0 c 0 0 0 0 0 0.1 c 0 50.8 41.3 92 92.1 92 c 23.3 0 45.6 -8.7 62.7 -24.7 c 16.5 -15.4 26.7 -36.5 28.9 -58.5 H 480 v -18 H 465.4 z" stroke-linecap="round"/>
</g>
</svg>